<svg xmlns="http://www.w3.org/2000/svg" xmlns:xlink="http://www.w3.org/1999/xlink" width="27" height="27" viewBox="0 0 27 27">
  <defs>
    <clipPath id="clip-inoise">
      <rect width="27" height="27"/>
    </clipPath>
  </defs>
  <g id="inoise" clip-path="url(#clip-inoise)">
    <g id="noise" transform="translate(-2182.74)">
      <rect id="Rectángulo_15" data-name="Rectángulo 15" width="1.155" height="27" transform="translate(2195.9)"/>
      <rect id="Rectángulo_16" data-name="Rectángulo 16" width="1.155" height="5.198" transform="translate(2199.413 10.901)"/>
      <rect id="Rectángulo_17" data-name="Rectángulo 17" width="1.155" height="5.198" transform="translate(2202.517 10.901)"/>
      <rect id="Rectángulo_18" data-name="Rectángulo 18" width="1.155" height="5.198" transform="translate(2205.622 10.901)"/>
      <path id="Trazado_3" data-name="Trazado 3" d="M90.91,381s1.985.18,1.985,3.555-1.985,3.411-1.985,3.411v-1.154s.866.126.866-2.329-.866-2.327-.866-2.327Z" transform="translate(2093.83 -370.713)"/>
      <path id="Trazado_4" data-name="Trazado 4" d="M164.44,285.6a5.766,5.766,0,0,1,0,9.258v1.518s3.483-1.408,3.483-6.154-3.483-6.1-3.483-6.1Z" transform="translate(2022.285 -276.449)"/>
      <path id="Trazado_5" data-name="Trazado 5" d="M249.33,147.061a10.888,10.888,0,0,1,3.537,8.095,10.743,10.743,0,0,1-3.537,8.052v1.8s4.644-2.725,4.644-9.857-4.644-9.875-4.644-9.875Z" transform="translate(1939.687 -141.357)"/>
    </g>
  </g>
</svg>
