<svg xmlns="http://www.w3.org/2000/svg" viewBox="0 0 1000 1000"><title>touchIcon</title><path d="M354.19,0c-127.47,0-230.8,103.33-230.8,230.8s103.33,230.8,230.8,230.8S585,358.26,585,230.8,481.66,0,354.19,0Zm0,391.74a160.95,160.95,0,1,1,161-160.94A160.94,160.94,0,0,1,354.19,391.74Z"/><path d="M287.44,225.14s0-62.22,66.75-62.22,70.14,62.22,70.14,62.22V439s70.15-97.3,131.24,0c0,0,69-87.12,135.77,0,0,0,81.45-90.51,131.23,0V744.44s-24.89,251.16-250,251.16c0,0-284-2.26-284-284S287.44,225.14,287.44,225.14Z"/></svg>